<svg xmlns="http://www.w3.org/2000/svg" xml:space="preserve" class="ddb-logo-svg" viewBox="0 0 120.5 62.6">
  <g fill="#212322">
    <path d="M37.4 47c-.1 7.7-4.6 12.9-12.3 14.7-2.5.6-5.1.8-7.7.8H1.5C.7 62.6 0 62 0 61.3V33.1c-.1-.8.5-1.5 1.2-1.5h16.6c2.4 0 4.7.2 7 .6C32.5 34 37.3 39.3 37.4 47" class="clr-main"/>
    <path fill="#ffc500" d="M1.6 28.2C.8 28.3.1 27.7 0 27V1.6C-.1.8.5.1 1.3 0H15.5c2.2 0 4.4.2 6.5.6C29.2 2.2 33.6 7 33.7 14.1c-.1 7.1-4.4 11.8-11.5 13.5-2.3.4-4.7.7-7 .6H1.6" class="clr-alt"/>
    <path d="M118.219 61.465v-5.6c0-.9-.4-1.3-1.4-1.3-1.1 0-1.9.7-1.9 1.3v5.6h-2.3v-12.4h2.3v4.5c.7-.6 1.6-.9 2.5-.9 1.9 0 3 .9 3 2.6v6.2h-2.2z" class="clr-main"/>
    <path d="M78.219 14.765h2.3v12.4h-2.3v-12.4z" class="clr-main"/>
    <path d="M110.319 55.265c-.5-.6-1.2-.9-2-.8-1.4 0-2 .9-2 2.7 0 1.8.6 2.7 2.1 2.7.8 0 1.5-.3 2-.8l1.1 1.6c-.9.8-2.1 1.2-3.3 1.1-3 0-4.1-1.8-4.1-4.5 0-2.6 1.3-4.5 4.2-4.5 1.2-.1 2.4.3 3.3 1.1l-1.3 1.4z" class="clr-main"/>
    <path d="M74.219 26.765c-.8 2.3-1.5 3.7-3.8 3.7h-1.3v-1.8h1c.9 0 1.2-.3 1.7-1.4l-3.3-8.7h2.4l2.1 6.2 1.9-6.2h2.3l-3 8.2z" class="clr-main"/>
    <path d="M74.519 44.265v-5.6c0-.9-.4-1.3-1.4-1.3-1.1 0-1.8.7-1.8 1.3v5.6h-2.3v-8.6h1.9l.2.9c.8-.7 1.7-1 2.7-1.1 1.9 0 3 .9 3 2.6v6.2h-2.3z" class="clr-main"/>
    <path d="M80.719 61.465v-5.6c0-.9-.4-1.3-1.4-1.3-1.1 0-1.8.7-1.8 1.3v5.6h-2.3v-8.7h1.9l.2.9c.8-.7 1.7-1 2.7-1.1 1.9 0 3 .9 3 2.6v6.2l-2.3.1z" class="clr-main"/>
    <path d="M72.719 54.965c-1.2 0-1.7.9-1.7 1.9v4.6h-2.3v-6.8l-.3-1.9h2.1l.2 1.2c.5-.8 1.4-1.3 2.3-1.2h.8v2.2h-1.1z" class="clr-main"/>
    <path d="M90.419 23.465h-5.8c-.1 1 .6 1.9 1.7 2h.5c.9.1 1.8-.4 2.3-1.2l1.4 1.2c-.9 1.2-2.3 1.9-3.8 1.7-2.9 0-4.4-1.4-4.4-4.5 0-2.8 1.3-4.4 4.2-4.5 3.1 0 4 1.8 4 3.9v.4c0 .4 0 .8-.1 1zm-2.2-1.7c0-1.2-.6-1.8-1.7-1.8-1.2 0-1.8.7-1.8 1.9h3.5v-.1z" class="clr-main"/>
    <path d="M86.719 40.665h-5.8c-.1 1 .6 1.9 1.7 2h.5c.9.1 1.8-.4 2.3-1.2l1.4 1.2c-.9 1.2-2.3 1.9-3.8 1.7-2.9 0-4.4-1.4-4.4-4.5 0-2.8 1.3-4.4 4.2-4.5 3.1 0 4 1.8 4 3.9v.5c-.1.2-.1.6-.1.9zm-2.3-1.7c0-1.2-.6-1.8-1.7-1.8-1.2 0-1.8.7-1.8 1.9h3.5v-.1z" class="clr-main"/>
    <path d="M63.419 27.265c-2.7 0-4.2-1.2-4.2-4.5s1.6-4.5 4.2-4.5 4.3 1.2 4.3 4.5-1.5 4.5-4.3 4.5zm0-7.2c-1.4 0-1.9.8-1.9 2.8s.5 2.8 1.9 2.8 1.9-.8 1.9-2.8-.5-2.8-1.9-2.8z" class="clr-main"/>
    <path d="M101.719 61.565c-.8.1-1.5-.3-1.7-1.1-.8.8-1.8 1.2-2.8 1.1-2 0-2.7-.9-2.7-2.5 0-2.3 2.1-2.8 5.3-3v-.3c0-1-.5-1.4-1.6-1.4-.8 0-1.6.4-2 1.2l-1.6-1c.8-1.3 2.2-2.1 3.8-1.9 2.4 0 3.7.9 3.7 3.1v3.5c0 .5.1.7.5.7h.4v1.5c-.5 0-.9.1-1.3.1zm-1.9-4c-1.8.1-3 .3-3 1.4 0 .7.3 1 1.1 1 .9.1 1.7-.5 1.9-1.4v-1z" class="clr-main"/>
    <path d="M88.919 61.665c-1.3 0-2.6-.3-3.8-.9v-11.7h2.3v4.5c.7-.6 1.6-.9 2.6-.9 2.1 0 3.3 1.2 3.3 4.3 0 3.8-1.9 4.7-4.4 4.7zm.3-7.2c-.8-.1-1.5.4-1.8 1.2v3.9c.5.3 1 .4 1.6.4 1.7 0 1.9-1.2 1.9-2.9 0-2-.5-2.6-1.7-2.6z" class="clr-main"/>
    <path d="M52.219 27.165h-4v-12h4c3.6 0 5.6 1.4 5.6 5.9 0 4.2-1.7 6.1-5.6 6.1zm.1-10.1h-1.7v8.1h1.7c2.1 0 2.9-1.2 2.9-4.2.1-2.8-.8-3.9-2.9-3.9z" class="clr-main"/>
    <path d="M66.319 44.365c-.8.1-1.5-.3-1.7-1.1-.7.7-1.7 1.2-2.8 1.1-2 0-2.7-.9-2.7-2.5 0-2.3 2.1-2.8 5.3-3v-.3c0-1-.5-1.4-1.6-1.4-.8 0-1.6.4-2 1.2l-1.6-1c.8-1.3 2.2-2.1 3.8-1.9 2.4 0 3.7.9 3.7 3.1v3.5c0 .5.1.7.5.7h.4v1.5c-.5.1-.9.1-1.3.1zm-1.9-4c-1.8.1-3 .3-3 1.4 0 .7.3 1 1.1 1 .9.1 1.7-.5 1.9-1.4v-1z" class="clr-main"/>
    <path d="M52.219 44.265h-4v-12h4c3.6 0 5.6 1.4 5.6 5.9 0 4.3-1.7 6.1-5.6 6.1zm.1-10.1h-1.7v8.1h1.7c2.1 0 2.9-1.2 2.9-4.2.1-2.8-.8-3.9-2.9-3.9z" class="clr-main"/>
    <path d="M66.819 57.765h-5.8c-.1 1 .6 1.9 1.7 2h.5c.9.1 1.8-.4 2.3-1.2l1.4 1.2c-.9 1.2-2.3 1.9-3.8 1.7-2.9 0-4.4-1.4-4.4-4.5 0-2.8 1.3-4.4 4.2-4.5 3.1 0 4 1.8 4 3.9v.4c-.1.4-.1.8-.1 1zm-2.3-1.7c0-1.2-.6-1.8-1.7-1.8-1.2 0-1.8.7-1.8 1.9h3.5v-.1z" class="clr-main"/>
    <path d="M53.019 61.465h-4.8v-12h5c2.2 0 3.6.9 3.6 3.1.1 1-.5 2-1.4 2.5 1.2.4 2 1.6 1.8 2.8 0 2.5-1.5 3.6-4.2 3.6zm-.3-10.2h-2.1v3h2c1.3 0 1.7-.6 1.7-1.6.1-.9-.4-1.4-1.6-1.4zm-.1 4.8h-2v3.4h2.1c1.5 0 2.1-.6 2.1-1.7s-.6-1.7-2.2-1.7z" class="clr-main"/>
    <path d="M24.7 57.8v-1.7c0-.3-.1-.4-.4-.4-.3 0-.6.2-.6.4v1.7H23v-3.7h.7v1.3c.2-.2.5-.3.7-.3.6 0 .9.3.9.8v1.8l-.6.1z" class="clr-main"/>
    <path d="M12.9 44h.7v3.7h-.7V44z" class="clr-main"/>
    <path d="M22.4 56c-.1-.2-.4-.3-.6-.2-.4 0-.6.3-.6.8s.2.8.6.8c.2 0 .4-.1.6-.2l.3.5c-.3.2-.6.3-1 .3-.9 0-1.2-.5-1.2-1.3-.1-.6.4-1.2 1-1.3h.3c.4 0 .7.1 1 .3l-.4.3z" class="clr-main"/>
    <path d="M11.7 47.5c-.2.7-.5 1.1-1.1 1.1h-.4v-.5h.3c.2 0 .3-.1.5-.4l-1-2.6h.7l.6 1.8.6-1.8h.7l-.9 2.4z" class="clr-main"/>
    <path d="M11.8 52.7v-1.6c0-.3-.1-.4-.4-.4-.3 0-.5.2-.5.4v1.7h-.7v-2.6h.6l.1.3c.1-.3.4-.4.7-.4.6 0 .9.3.9.8v1.8h-.7z" class="clr-main"/>
    <path d="M13.6 57.8v-1.6c0-.3-.1-.4-.4-.4-.3 0-.5.2-.5.4v1.7H12v-2.6h.6l.1.3c.2-.2.5-.3.8-.3.6 0 .9.3.9.8v1.8h-.8z" class="clr-main"/>
    <path d="M11.2 55.9c-.4 0-.5.3-.5.6v1.4h-.6v-2l-.1-.6h.6l.1.4c.1-.2.4-.4.7-.4h.2v.6h-.4z" class="clr-main"/>
    <path d="M16.5 46.6h-1.7c0 .3.2.6.5.6h.1c.3 0 .5-.1.7-.3l.4.4c-.3.4-.7.6-1.1.5-.9 0-1.3-.4-1.3-1.3-.1-.6.3-1.2 1-1.3h.3c.6-.1 1.1.3 1.2.9v.4c-.1-.1-.1 0-.1.1zm-.7-.5c0-.4-.2-.5-.5-.5s-.5.2-.5.6l1-.1z" class="clr-main"/>
    <path d="M15.4 51.7h-1.7c0 .3.2.6.5.6h.1c.3 0 .5-.1.7-.3l.4.4c-.3.4-.7.6-1.1.5-.9-.1-1.3-.5-1.3-1.5-.1-.6.3-1.2 1-1.3h.3c.5-.1 1 .3 1.1.9v.7zm-.7-.6c0-.4-.2-.5-.5-.5s-.5.2-.5.6l1-.1z" class="clr-main"/>
    <path d="M8.5 47.7c-.8 0-1.3-.4-1.3-1.3s.5-1.3 1.3-1.3 1.3.4 1.3 1.3-.5 1.3-1.3 1.3zm0-2.1c-.4 0-.5.2-.5.8s.2.8.6.8.5-.2.5-.8-.2-.8-.6-.8z" class="clr-main"/>
    <path d="M19.8 57.8c-.2 0-.4-.1-.5-.3-.2.2-.5.3-.8.3-.6 0-.8-.3-.8-.7 0-.7.6-.8 1.6-.9v-.1c0-.3-.1-.4-.5-.4-.3 0-.5.1-.6.4l-.5-.3c.2-.4.7-.6 1.1-.6.7 0 1.1.3 1.1.9v1c0 .2 0 .2.2.2h.1v.4c-.1.1-.2.2-.4.1zm-.5-1.1c-.5 0-.9.1-.9.4 0 .2.1.3.3.3.3 0 .5-.1.6-.4V56.7z" class="clr-main"/>
    <path d="M16.1 57.9c-.4 0-.8-.1-1.1-.3v-3.4h.7v1.3c.2-.2.5-.3.8-.3.6 0 1 .4 1 1.3-.2 1.1-.7 1.4-1.4 1.4zm0-2.1c-.2 0-.4.1-.5.3v1.1c.1.1.3.1.5.1.5 0 .6-.3.6-.9-.1-.5-.2-.6-.6-.6z" class="clr-main"/>
    <path d="M5.2 47.7H4v-3.6h1.2c1.1 0 1.7.4 1.7 1.7-.1 1.3-.6 1.9-1.7 1.9zm0-3h-.5v2.4h.5c.6 0 .9-.4.9-1.2 0-.9-.3-1.2-.9-1.2z" class="clr-main"/>
    <path d="M9.3 52.8c-.2 0-.4-.1-.5-.3-.2.2-.5.3-.8.3-.6 0-.8-.3-.8-.7 0-.7.6-.8 1.6-.9v-.1c0-.3-.1-.4-.5-.4-.2-.1-.5.1-.6.3l-.5-.3c.2-.4.7-.6 1.1-.6.7 0 1.1.3 1.1.9v1c0 .2 0 .2.2.2h.1v.4c-.1.2-.2.2-.4.2zm-.5-1.2c-.5 0-.9.1-.9.4 0 .2.1.3.3.3.3 0 .5-.1.6-.4V51.6z" class="clr-main"/>
    <path d="M5.2 52.7H4v-3.5h1.2c1.1 0 1.7.4 1.7 1.7-.1 1.3-.6 1.8-1.7 1.8zm0-2.9h-.5v2.4h.5c.6 0 .9-.4.9-1.2 0-.9-.3-1.2-.9-1.2z" class="clr-main"/>
    <path d="M9.5 56.7H7.8c0 .3.2.6.5.6h.1c.3 0 .5-.1.7-.3l.4.4c-.3.4-.7.6-1.1.5-.9 0-1.3-.4-1.3-1.3-.1-.6.3-1.2 1-1.3h.3c.6-.1 1.1.3 1.2.9v.4c-.1 0-.1.1-.1.1zm-.7-.5c0-.4-.2-.5-.5-.5s-.5.2-.5.6l1-.1z" class="clr-main"/>
    <path d="M5.4 57.8H4v-3.6h1.5c.7 0 1.1.3 1.1.9 0 .3-.1.6-.4.7.4.1.6.5.5.8 0 .9-.5 1.2-1.3 1.2zm-.1-3h-.6v.9h.6c.4 0 .5-.2.5-.5s-.1-.4-.5-.4zm0 1.4h-.6v1h.6c.5 0 .6-.2.6-.5s-.1-.5-.6-.5z" class="clr-main"/>
  </g>
</svg>
