<svg xmlns="http://www.w3.org/2000/svg" viewBox="0 0 640 112" role="img" aria-labelledby="title">
  <title id="title">VML</title>
  <rect width="520" height="112" fill="none"/>
  <g fill="#050505">
    <path d="M16 20h34l42 35 42-35h34l-58 49 58 49h-34L92 83l-42 35H16l58-49z"/>
    <path d="M52 20h34l28 23-17 14z"/>
    <path d="M132 20h36v36l-26 22-17-14 24-20V38z"/>
    <path d="M132 118H96l-28-23 17-14z"/>
    <path d="M16 82l26-22 17 14-24 20v18H16z"/>
    <path d="M205 32h39l36 70 36-70h39l-54 94h-42z"/>
    <path d="M355 32h39l32 63 32-63h39v94h-32V76l-27 50h-25l-27-50v50h-31z"/>
    <path d="M508 32h34v65h70v29H508z"/>
  </g>
</svg>
